<svg width="19" height="16" viewBox="0 0 19 16" fill="none" xmlns="http://www.w3.org/2000/svg">
<path d="M2.33329 7.00004H15.6666V3.66671H2.33329V7.00004ZM15.6666 15.3334C15.4305 15.3334 15.2327 15.2534 15.0733 15.0934C14.9133 14.9339 14.8333 14.7362 14.8333 14.5V12.8334H13.1666C12.9305 12.8334 12.7327 12.7534 12.5733 12.5934C12.4133 12.4339 12.3333 12.2362 12.3333 12C12.3333 11.7639 12.4133 11.5662 12.5733 11.4067C12.7327 11.2467 12.9305 11.1667 13.1666 11.1667H14.8333V9.50004C14.8333 9.26393 14.9133 9.06587 15.0733 8.90587C15.2327 8.74643 15.4305 8.66671 15.6666 8.66671C15.9027 8.66671 16.1005 8.74643 16.26 8.90587C16.42 9.06587 16.5 9.26393 16.5 9.50004V11.1667H18.1666C18.4027 11.1667 18.6005 11.2467 18.76 11.4067C18.92 11.5662 19 11.7639 19 12C19 12.2362 18.92 12.4339 18.76 12.5934C18.6005 12.7534 18.4027 12.8334 18.1666 12.8334H16.5V14.5C16.5 14.7362 16.42 14.9339 16.26 15.0934C16.1005 15.2534 15.9027 15.3334 15.6666 15.3334ZM2.33329 13.6667C1.87496 13.6667 1.48274 13.5037 1.15663 13.1775C0.829959 12.8509 0.666626 12.4584 0.666626 12V2.00004C0.666626 1.54171 0.829959 1.14948 1.15663 0.823374C1.48274 0.496707 1.87496 0.333374 2.33329 0.333374H15.6666C16.125 0.333374 16.5175 0.496707 16.8441 0.823374C17.1702 1.14948 17.3333 1.54171 17.3333 2.00004V7.00004H14.8333C13.6805 7.00004 12.698 7.40615 11.8858 8.21837C11.073 9.03115 10.6666 10.0139 10.6666 11.1667V13.6667H2.33329Z" fill="#292929"/>
</svg>
