<svg width="40" height="60" viewBox="0 0 40 60" fill="none" xmlns="http://www.w3.org/2000/svg">
<path d="M12.0014 25.5684C11.0644 23.8777 11.6705 21.7145 13.4985 21.0862C16.7273 19.9763 20.2063 19.7052 23.6028 20.3272C28.1542 21.1607 32.2758 23.5466 35.2653 27.0783C38.2548 30.61 39.9273 35.0691 39.9977 39.6956C40.0681 44.3222 38.5321 48.83 35.6515 52.4511C32.7709 56.0722 28.7238 58.5824 24.1999 59.5541C19.676 60.5257 14.9551 59.8987 10.8416 57.7799C6.72813 55.661 3.4766 52.1814 1.64103 47.934C0.271236 44.7643 -0.246781 41.3134 0.108652 37.9178C0.309884 35.9953 2.28133 34.9183 4.13942 35.4512V35.4512C5.99751 35.9841 7.02009 37.9362 7.00065 39.8691C6.9825 41.6743 7.34039 43.4765 8.06667 45.1571C9.25979 47.9179 11.3733 50.1797 14.047 51.5569C16.7208 52.9342 19.7894 53.3417 22.7299 52.7101C25.6705 52.0786 28.3011 50.4469 30.1735 48.0932C32.0459 45.7395 33.0443 42.8094 32.9985 39.8022C32.9527 36.7949 31.8656 33.8965 29.9225 31.6009C27.9793 29.3053 25.3003 27.7545 22.3418 27.2127C20.541 26.8829 18.7044 26.9394 16.9496 27.3629C15.0705 27.8165 12.9384 27.259 12.0014 25.5684V25.5684Z" fill="#EF4C23"/>
<path d="M0 16.5C0 14.567 1.567 13 3.5 13V13C5.433 13 7 14.567 7 16.5V40.1667C7 42.0997 5.433 43.6667 3.5 43.6667V43.6667C1.567 43.6667 0 42.0997 0 40.1667V16.5Z" fill="#EF4C23"/>
<path d="M0 3.86974C0 1.73254 1.73255 0 3.86975 0V0C5.84157 0 7.49807 1.48264 7.71582 3.4424L7.92638 5.33741C7.97531 5.77778 7.97531 6.22222 7.92638 6.66259L7.71582 8.5576C7.49807 10.5174 5.84157 12 3.86975 12V12C1.73254 12 0 10.2675 0 8.13026V3.86974Z" fill="#EF4C23"/>
<path d="M30.6666 40C30.6666 45.8911 25.891 50.6667 20 50.6667C14.1089 50.6667 9.33331 45.8911 9.33331 40C9.33331 34.109 14.1089 29.3334 20 29.3334C25.891 29.3334 30.6666 34.109 30.6666 40ZM12.529 40C12.529 44.1261 15.8739 47.471 20 47.471C24.1261 47.471 27.4709 44.1261 27.4709 40C27.4709 35.874 24.1261 32.5291 20 32.5291C15.8739 32.5291 12.529 35.874 12.529 40Z" fill="black"/>
<path d="M16.6903 43.8409V37.0909H17.419V37.8707H17.5085C17.5639 37.7855 17.6406 37.6768 17.7386 37.5447C17.8388 37.4105 17.9815 37.2912 18.1669 37.1868C18.3544 37.0803 18.608 37.027 18.9276 37.027C19.3409 37.027 19.7053 37.1303 20.0206 37.337C20.3359 37.5437 20.582 37.8366 20.7589 38.2159C20.9357 38.5952 21.0241 39.0426 21.0241 39.5582C21.0241 40.0781 20.9357 40.5288 20.7589 40.9102C20.582 41.2894 20.337 41.5835 20.0238 41.7923C19.7106 41.9989 19.3494 42.1023 18.9403 42.1023C18.625 42.1023 18.3725 42.0501 18.1829 41.9457C17.9933 41.8391 17.8473 41.7187 17.745 41.5845C17.6428 41.4482 17.5639 41.3352 17.5085 41.2457H17.4446V43.8409H16.6903ZM17.4318 39.5455C17.4318 39.9162 17.4862 40.2433 17.5948 40.5266C17.7035 40.8079 17.8622 41.0284 18.071 41.1882C18.2798 41.3459 18.5355 41.4247 18.8381 41.4247C19.1534 41.4247 19.4165 41.3416 19.6275 41.1754C19.8406 41.0071 20.0004 40.7812 20.1069 40.4979C20.2156 40.2124 20.2699 39.8949 20.2699 39.5455C20.2699 39.2003 20.2166 38.8892 20.1101 38.6122C20.0057 38.3331 19.8469 38.1126 19.6339 37.9506C19.4229 37.7866 19.1577 37.7045 18.8381 37.7045C18.5313 37.7045 18.2734 37.7823 18.0646 37.9379C17.8558 38.0913 17.6982 38.3065 17.5916 38.5835C17.4851 38.8583 17.4318 39.179 17.4318 39.5455ZM22.1747 42V37.0909H22.9034V37.8324H22.9545C23.044 37.5895 23.206 37.3924 23.4403 37.2411C23.6747 37.0898 23.9389 37.0142 24.233 37.0142C24.2884 37.0142 24.3576 37.0153 24.4407 37.0174C24.5238 37.0195 24.5866 37.0227 24.6293 37.027V37.794C24.6037 37.7876 24.5451 37.7781 24.4535 37.7653C24.364 37.7504 24.2692 37.7429 24.169 37.7429C23.9304 37.7429 23.7173 37.793 23.5298 37.8931C23.3445 37.9911 23.1974 38.1275 23.0888 38.3022C22.9822 38.4748 22.929 38.6719 22.929 38.8935V42H22.1747Z" fill="#EF4C23"/>
<path d="M16.6903 43.8409H16.4903V44.0409H16.6903V43.8409ZM16.6903 37.0909V36.8909H16.4903V37.0909H16.6903ZM17.419 37.0909H17.619V36.8909H17.419V37.0909ZM17.419 37.8707H17.219V38.0707H17.419V37.8707ZM17.5085 37.8707V38.0707H17.6171L17.6762 37.9797L17.5085 37.8707ZM17.7386 37.5447L17.5783 37.4252L17.578 37.4256L17.7386 37.5447ZM18.1669 37.1868L18.2651 37.3611L18.2657 37.3607L18.1669 37.1868ZM20.0206 37.337L20.1302 37.1697L20.1302 37.1697L20.0206 37.337ZM20.7589 38.2159L20.9401 38.1314L20.9401 38.1314L20.7589 38.2159ZM20.7589 40.9102L20.9401 40.9947L20.9403 40.9943L20.7589 40.9102ZM20.0238 41.7923L20.1339 41.9592L20.1347 41.9587L20.0238 41.7923ZM18.1829 41.9457L18.0849 42.12L18.0864 42.1209L18.1829 41.9457ZM17.745 41.5845L17.585 41.7045L17.5859 41.7057L17.745 41.5845ZM17.5085 41.2457L17.6786 41.1405L17.6199 41.0457H17.5085V41.2457ZM17.4446 41.2457V41.0457H17.2446V41.2457H17.4446ZM17.4446 43.8409V44.0409H17.6446V43.8409H17.4446ZM17.5948 40.5266L17.4081 40.5982L17.4083 40.5987L17.5948 40.5266ZM18.071 41.1882L17.9495 41.347L17.9505 41.3478L18.071 41.1882ZM19.6275 41.1754L19.7513 41.3325L19.7515 41.3324L19.6275 41.1754ZM20.1069 40.4979L19.92 40.4267L19.9197 40.4275L20.1069 40.4979ZM20.1101 38.6122L19.9228 38.6823L19.9234 38.684L20.1101 38.6122ZM19.6339 37.9506L19.5111 38.1085L19.5129 38.1099L19.6339 37.9506ZM18.0646 37.9379L18.183 38.099L18.1841 38.0982L18.0646 37.9379ZM17.5916 38.5835L17.7781 38.6557L17.7783 38.6552L17.5916 38.5835ZM16.8903 43.8409V37.0909H16.4903V43.8409H16.8903ZM16.6903 37.2909H17.419V36.8909H16.6903V37.2909ZM17.219 37.0909V37.8707H17.619V37.0909H17.219ZM17.419 38.0707H17.5085V37.6707H17.419V38.0707ZM17.6762 37.9797C17.7284 37.8994 17.8024 37.7945 17.8993 37.6639L17.578 37.4256C17.4788 37.5592 17.3994 37.6716 17.3408 37.7617L17.6762 37.9797ZM17.8989 37.6643C17.9785 37.5576 18.0977 37.4553 18.2651 37.3611L18.0688 37.0125C17.8654 37.1271 17.699 37.2634 17.5783 37.4252L17.8989 37.6643ZM18.2657 37.3607C18.412 37.2776 18.6271 37.227 18.9276 37.227V36.827C18.5888 36.827 18.2968 36.8829 18.0681 37.0129L18.2657 37.3607ZM18.9276 37.227C19.3059 37.227 19.6313 37.321 19.911 37.5043L20.1302 37.1697C19.7792 36.9397 19.376 36.827 18.9276 36.827V37.227ZM19.911 37.5043C20.1919 37.6884 20.4147 37.9511 20.5776 38.3004L20.9401 38.1314C20.7494 37.7222 20.48 37.399 20.1302 37.1697L19.911 37.5043ZM20.5776 38.3004C20.7396 38.6478 20.8241 39.0652 20.8241 39.5582H21.2241C21.2241 39.02 21.1319 38.5425 20.9401 38.1314L20.5776 38.3004ZM20.8241 39.5582C20.8241 40.0558 20.7395 40.4765 20.5774 40.826L20.9403 40.9943C21.1319 40.5811 21.2241 40.1005 21.2241 39.5582H20.8241ZM20.5776 40.8256C20.4145 41.1755 20.1922 41.4396 19.9129 41.6258L20.1347 41.9587C20.4818 41.7273 20.7496 41.4033 20.9401 40.9947L20.5776 40.8256ZM19.9136 41.6253C19.6361 41.8085 19.314 41.9023 18.9403 41.9023V42.3023C19.3849 42.3023 19.7851 42.1894 20.1339 41.9592L19.9136 41.6253ZM18.9403 41.9023C18.6444 41.9023 18.429 41.8529 18.2793 41.7705L18.0864 42.1209C18.316 42.2473 18.6056 42.3023 18.9403 42.3023V41.9023ZM18.2808 41.7713C18.1084 41.6744 17.9858 41.5705 17.9041 41.4633L17.5859 41.7057C17.7088 41.867 17.8781 42.0038 18.0849 42.12L18.2808 41.7713ZM17.905 41.4645C17.8044 41.3304 17.7295 41.2228 17.6786 41.1405L17.3385 41.351C17.3983 41.4477 17.4811 41.5659 17.585 41.7045L17.905 41.4645ZM17.5085 41.0457H17.4446V41.4457H17.5085V41.0457ZM17.2446 41.2457V43.8409H17.6446V41.2457H17.2446ZM17.4446 43.6409H16.6903V44.0409H17.4446V43.6409ZM17.2318 39.5455C17.2318 39.9354 17.2889 40.2876 17.4081 40.5982L17.7816 40.455C17.6834 40.1989 17.6318 39.897 17.6318 39.5455H17.2318ZM17.4083 40.5987C17.5282 40.9092 17.7073 41.1617 17.9495 41.347L18.1926 41.0294C18.0171 40.8951 17.8788 40.7066 17.7814 40.4546L17.4083 40.5987ZM17.9505 41.3478C18.1993 41.5357 18.4991 41.6247 18.8381 41.6247V41.2247C18.5719 41.2247 18.3604 41.1561 18.1915 41.0286L17.9505 41.3478ZM18.8381 41.6247C19.1902 41.6247 19.4991 41.5312 19.7513 41.3325L19.5037 41.0183C19.334 41.1521 19.1167 41.2247 18.8381 41.2247V41.6247ZM19.7515 41.3324C19.9963 41.139 20.1763 40.8817 20.2941 40.5682L19.9197 40.4275C19.8244 40.6808 19.6848 40.8753 19.5035 41.0185L19.7515 41.3324ZM20.2938 40.569C20.4123 40.2578 20.4699 39.9157 20.4699 39.5455H20.0699C20.0699 39.874 20.0188 40.167 19.92 40.4267L20.2938 40.569ZM20.4699 39.5455C20.4699 39.1797 20.4134 38.8437 20.2968 38.5404L19.9234 38.684C20.0198 38.9347 20.0699 39.2209 20.0699 39.5455H20.4699ZM20.2974 38.5421C20.1813 38.2318 20.0014 37.9787 19.7549 37.7914L19.5129 38.1099C19.6925 38.2464 19.83 38.4344 19.9228 38.6823L20.2974 38.5421ZM19.7567 37.7928C19.5041 37.5963 19.1931 37.5045 18.8381 37.5045V37.9045C19.1222 37.9045 19.3418 37.9768 19.5111 38.1085L19.7567 37.7928ZM18.8381 37.5045C18.4961 37.5045 18.1944 37.5918 17.9452 37.7775L18.1841 38.0982C18.3525 37.9728 18.5664 37.9045 18.8381 37.9045V37.5045ZM17.9462 37.7767C17.7023 37.9559 17.5232 38.2043 17.405 38.5117L17.7783 38.6552C17.8731 38.4086 18.0094 38.2266 18.183 38.099L17.9462 37.7767ZM17.4051 38.5112C17.2878 38.8139 17.2318 39.1601 17.2318 39.5455H17.6318C17.6318 39.1979 17.6824 38.9027 17.7781 38.6557L17.4051 38.5112ZM22.1747 42H21.9747V42.2H22.1747V42ZM22.1747 37.0909V36.8909H21.9747V37.0909H22.1747ZM22.9034 37.0909H23.1034V36.8909H22.9034V37.0909ZM22.9034 37.8324H22.7034V38.0324H22.9034V37.8324ZM22.9545 37.8324V38.0324H23.094L23.1422 37.9015L22.9545 37.8324ZM23.4403 37.2411L23.3319 37.0731L23.3319 37.0731L23.4403 37.2411ZM24.6293 37.027H24.8293V36.846L24.6492 36.828L24.6293 37.027ZM24.6293 37.794L24.5808 37.9881L24.8293 38.0502V37.794H24.6293ZM24.4535 37.7653L24.4206 37.9626L24.4258 37.9634L24.4535 37.7653ZM23.5298 37.8931L23.6233 38.0699L23.6241 38.0695L23.5298 37.8931ZM23.0888 38.3022L22.9189 38.1966L22.9186 38.1971L23.0888 38.3022ZM22.929 42V42.2H23.129V42H22.929ZM22.3747 42V37.0909H21.9747V42H22.3747ZM22.1747 37.2909H22.9034V36.8909H22.1747V37.2909ZM22.7034 37.0909V37.8324H23.1034V37.0909H22.7034ZM22.9034 38.0324H22.9545V37.6324H22.9034V38.0324ZM23.1422 37.9015C23.2155 37.7025 23.3478 37.5389 23.5488 37.4092L23.3319 37.0731C23.0641 37.2459 22.8725 37.4764 22.7669 37.7632L23.1422 37.9015ZM23.5488 37.4092C23.7491 37.2799 23.9752 37.2142 24.233 37.2142V36.8142C23.9026 36.8142 23.6004 36.8998 23.3319 37.0731L23.5488 37.4092ZM24.233 37.2142C24.286 37.2142 24.3534 37.2152 24.4356 37.2173L24.4458 36.8175C24.3618 36.8153 24.2907 36.8142 24.233 36.8142V37.2142ZM24.4356 37.2173C24.5174 37.2194 24.5743 37.2225 24.6094 37.226L24.6492 36.828C24.599 36.823 24.5302 36.8196 24.4458 36.8175L24.4356 37.2173ZM24.4293 37.027V37.794H24.8293V37.027H24.4293ZM24.6778 37.6C24.6398 37.5905 24.5698 37.5796 24.4811 37.5672L24.4258 37.9634C24.5204 37.9766 24.5676 37.9848 24.5808 37.9881L24.6778 37.6ZM24.4864 37.568C24.385 37.5511 24.2791 37.5429 24.169 37.5429V37.9429C24.2593 37.9429 24.343 37.9496 24.4206 37.9625L24.4864 37.568ZM24.169 37.5429C23.9016 37.5429 23.6555 37.5993 23.4356 37.7167L23.6241 38.0695C23.7792 37.9867 23.9592 37.9429 24.169 37.9429V37.5429ZM23.4363 37.7163C23.2203 37.8305 23.0467 37.9912 22.9189 38.1966L23.2586 38.4078C23.3482 38.2638 23.4686 38.1517 23.6233 38.0699L23.4363 37.7163ZM22.9186 38.1971C22.7908 38.4042 22.729 38.6383 22.729 38.8935H23.129C23.129 38.7054 23.1737 38.5454 23.259 38.4073L22.9186 38.1971ZM22.729 38.8935V42H23.129V38.8935H22.729ZM22.929 41.8H22.1747V42.2H22.929V41.8Z" fill="#EF4C23"/>
</svg>
