<svg width="12" height="12" viewBox="0 0 12 12" fill="none" xmlns="http://www.w3.org/2000/svg">
<path d="M9.64567 3.43317L6.43734 1.57817C6.30452 1.5008 6.15355 1.46003 5.99984 1.46003C5.84612 1.46003 5.69516 1.5008 5.56234 1.57817L2.354 3.43317C2.08567 3.59067 1.9165 3.8765 1.9165 4.1915V7.89567C1.9165 8.21067 2.08567 8.4965 2.354 8.654L5.56234 10.509C5.83067 10.6665 6.169 10.6665 6.43734 10.509L9.64567 8.654C9.914 8.4965 10.0832 8.21067 10.0832 7.89567V4.1915C10.0832 3.8765 9.914 3.59067 9.64567 3.43317ZM3.08317 7.7265V5.0315L5.4165 6.38484V9.074L3.08317 7.7265ZM5.99984 5.37567L3.6665 4.02234L5.99984 2.67484L8.33317 4.02234L5.99984 5.37567ZM6.58317 9.074V6.38484L8.9165 5.0315V7.7265L6.58317 9.074ZM3.08317 0.166504H1.0415C0.557337 0.166504 0.166504 0.557337 0.166504 1.0415V3.08317H1.33317V1.33317H3.08317V0.166504ZM8.9165 0.166504H10.9582C11.4423 0.166504 11.8332 0.557337 11.8332 1.0415V3.08317H10.6665V1.33317H8.9165V0.166504ZM3.08317 11.8332H1.0415C0.557337 11.8332 0.166504 11.4423 0.166504 10.9582V8.9165H1.33317V10.6665H3.08317V11.8332ZM8.9165 11.8332H10.9582C11.4423 11.8332 11.8332 11.4423 11.8332 10.9582V8.9165H10.6665V10.6665H8.9165V11.8332Z" fill="#292929"/>
</svg>
