<svg width="24" height="21" viewBox="0 0 24 21" fill="none" xmlns="http://www.w3.org/2000/svg">
<path d="M3.64247 16.1173L3.77824 15.5698L3.37997 15.1704C1.8699 13.6561 1 11.7728 1 9.75C1 5.1004 5.72008 1 12 1C18.2799 1 23 5.1004 23 9.75C23 14.3996 18.2799 18.5 12 18.5C10.3236 18.5 8.74111 18.1901 7.31769 17.6546L6.78642 17.4548L6.34248 17.8085C5.46075 18.511 3.86856 19.546 1.77389 19.8867C1.84794 19.7846 1.92392 19.6772 2.00096 19.565C2.59742 18.6963 3.30816 17.4652 3.64247 16.1173Z" stroke="black" stroke-width="2"/>
</svg>
