<svg width="18" height="15" viewBox="0 0 18 15" fill="none" xmlns="http://www.w3.org/2000/svg">
<path d="M17.9578 7.00938C15.8344 4.5625 12.9 1.75 9 1.75C7.425 1.75 5.98125 2.19531 4.45781 3.14688C3.17344 3.95313 1.85625 5.0875 0.046875 6.95312L0 7L0.314062 7.32344C2.89687 9.96719 5.12813 12.25 9 12.25C10.7109 12.25 12.3703 11.6922 14.0719 10.5438C15.5203 9.56406 16.7531 8.32187 17.7422 7.31875L18 7.06094L17.9578 7.00938ZM9 10.75C6.93281 10.75 5.25 9.06719 5.25 7C5.25 4.93281 6.93281 3.25 9 3.25C11.0672 3.25 12.75 4.93281 12.75 7C12.75 9.06719 11.0672 10.75 9 10.75Z" fill="black"/>
<path d="M8.7375 5.63125C8.7375 5.30781 8.83125 5.00313 8.99531 4.75C7.75312 4.75 6.75 5.7625 6.75 7.00938C6.75 8.25625 7.75781 9.26406 8.99531 9.26406C10.2328 9.26406 11.2453 8.25625 11.2453 7.00938C10.9922 7.17344 10.6875 7.26719 10.3641 7.26719C9.46875 7.2625 8.7375 6.53125 8.7375 5.63125Z" fill="black"/>
<path d="M16 1L8.75 7.75L1.5 14.5" stroke="black"/>
</svg>
