<svg width="18" height="12" viewBox="0 0 18 12" fill="none" xmlns="http://www.w3.org/2000/svg">
<path d="M17.9578 6.00938C15.8344 3.5625 12.9 0.75 9 0.75C7.425 0.75 5.98125 1.19531 4.45781 2.14688C3.17344 2.95313 1.85625 4.0875 0.046875 5.95312L0 6L0.314062 6.32344C2.89687 8.96719 5.12813 11.25 9 11.25C10.7109 11.25 12.3703 10.6922 14.0719 9.54375C15.5203 8.56406 16.7531 7.32187 17.7422 6.31875L18 6.06094L17.9578 6.00938ZM9 9.75C6.93281 9.75 5.25 8.06719 5.25 6C5.25 3.93281 6.93281 2.25 9 2.25C11.0672 2.25 12.75 3.93281 12.75 6C12.75 8.06719 11.0672 9.75 9 9.75Z" fill="black"/>
<path d="M8.7375 4.63125C8.7375 4.30781 8.83125 4.00313 8.99531 3.75C7.75312 3.75 6.75 4.7625 6.75 6.00938C6.75 7.25625 7.75781 8.26406 8.99531 8.26406C10.2328 8.26406 11.2453 7.25625 11.2453 6.00938C10.9922 6.17344 10.6875 6.26719 10.3641 6.26719C9.46875 6.2625 8.7375 5.53125 8.7375 4.63125Z" fill="black"/>
</svg>
