<svg width="24" height="24" viewBox="0 0 24 24" fill="none" xmlns="http://www.w3.org/2000/svg">
<g clip-path="url(#clip0_690_668)">
<path d="M24 12.2659C24 11.282 23.9183 10.5641 23.7415 9.81958H12.2449V14.2601H18.9931C18.8571 15.3637 18.1225 17.0256 16.4898 18.1423L16.4669 18.291L20.1019 21.0428L20.3537 21.0674C22.6666 18.98 24 15.9088 24 12.2659Z" fill="#4285F4"/>
<path d="M12.2449 23.9656C15.551 23.9656 18.3265 22.9019 20.3537 21.0673L16.4898 18.1422C15.4558 18.8469 14.068 19.3388 12.2449 19.3388C9.00682 19.3388 6.25854 17.2515 5.27886 14.3665L5.13526 14.3784L1.35552 17.2369L1.30609 17.3711C3.31968 21.2799 7.45574 23.9656 12.2449 23.9656Z" fill="#34A853"/>
<path d="M5.27886 14.3666C5.02036 13.6221 4.87076 12.8243 4.87076 12.0001C4.87076 11.1757 5.02036 10.378 5.26526 9.63352L5.25841 9.47496L1.43131 6.57056L1.30609 6.62876C0.476196 8.2508 0 10.0723 0 12.0001C0 13.9279 0.476196 15.7493 1.30609 17.3713L5.27886 14.3666Z" fill="#FBBC05"/>
<path d="M12.2449 4.66089C14.5442 4.66089 16.0952 5.63144 16.9796 6.44251L20.4353 3.14527C18.3129 1.21746 15.551 0.0341797 12.2449 0.0341797C7.45574 0.0341797 3.31968 2.7198 1.30609 6.62857L5.26526 9.63333C6.25855 6.74827 9.00682 4.66089 12.2449 4.66089Z" fill="#EB4335"/>
</g>
<defs>
<clipPath id="clip0_690_668">
<rect width="24" height="24" fill="white"/>
</clipPath>
</defs>
</svg>
