<svg width="30" height="32" viewBox="0 0 30 32" fill="none" xmlns="http://www.w3.org/2000/svg">
<g filter="url(#filter0_d_690_678)">
<path d="M24.7777 7.22008L17.4445 0.915623C16.7722 0.325982 15.9019 0 15 0C14.0981 0 13.2279 0.325982 12.5556 0.915623L5.22233 7.22008C4.83412 7.56056 4.52432 7.97824 4.31358 8.44531C4.10284 8.91237 3.99598 9.41811 4.00012 9.92884V20.4043C4.00012 21.3579 4.38642 22.2725 5.07405 22.9468C5.76168 23.6212 6.6943 24 7.66676 24H22.3333C23.3058 24 24.2384 23.6212 24.926 22.9468C25.6137 22.2725 26 21.3579 26 20.4043V9.91685C26.0024 9.40814 25.8947 8.90471 25.684 8.43984C25.4733 7.97496 25.1644 7.55922 24.7777 7.22008ZM17.4445 21.6029H12.5556V15.61C12.5556 15.2922 12.6844 14.9873 12.9136 14.7625C13.1428 14.5378 13.4537 14.4115 13.7778 14.4115H16.2222C16.5464 14.4115 16.8573 14.5378 17.0865 14.7625C17.3157 14.9873 17.4445 15.2922 17.4445 15.61V21.6029ZM23.5555 20.4043C23.5555 20.7222 23.4268 21.027 23.1976 21.2518C22.9683 21.4766 22.6575 21.6029 22.3333 21.6029H19.8889V15.61C19.8889 14.6564 19.5026 13.7418 18.815 13.0675C18.1273 12.3932 17.1947 12.0143 16.2222 12.0143H13.7778C12.8054 12.0143 11.8727 12.3932 11.1851 13.0675C10.4975 13.7418 10.1112 14.6564 10.1112 15.61V21.6029H7.66676C7.34261 21.6029 7.03173 21.4766 6.80252 21.2518C6.57331 21.027 6.44454 20.7222 6.44454 20.4043V9.91685C6.44476 9.74667 6.48193 9.57849 6.55359 9.4235C6.62524 9.2685 6.72972 9.13025 6.8601 9.01793L14.1934 2.72546C14.4164 2.5333 14.7032 2.42733 15 2.42733C15.2969 2.42733 15.5837 2.5333 15.8067 2.72546L23.14 9.01793C23.2704 9.13025 23.3748 9.2685 23.4465 9.4235C23.5181 9.57849 23.5553 9.74667 23.5555 9.91685V20.4043Z" fill="black"/>
<path d="M17.1148 1.29152L17.1147 1.29153L17.1185 1.29477L24.448 7.59598C24.4486 7.59649 24.4492 7.59701 24.4498 7.59752C24.7826 7.88984 25.0478 8.24738 25.2286 8.64624C25.4096 9.04577 25.502 9.478 25.5 9.91449V9.91685V20.4043C25.5 21.2221 25.1688 22.0085 24.5759 22.5899C23.9828 23.1715 23.1763 23.5 22.3333 23.5H7.66676C6.82379 23.5 6.01728 23.1715 5.42413 22.5899C4.83132 22.0085 4.50012 21.2221 4.50012 20.4043V9.92884H4.50013L4.5001 9.92478C4.49655 9.48657 4.58821 9.05235 4.76933 8.65095C4.95014 8.25023 5.21612 7.89104 5.55021 7.59757L12.8816 1.29477L12.8816 1.29479L12.8853 1.29152C13.4655 0.782631 14.2183 0.5 15 0.5C15.7818 0.5 16.5346 0.782631 17.1148 1.29152ZM17.4445 22.1029H17.9445V21.6029V15.61C17.9445 15.1564 17.7606 14.7233 17.4366 14.4055L17.0865 14.7625L17.4366 14.4055C17.1129 14.0881 16.6759 13.9115 16.2222 13.9115H13.7778C13.3242 13.9115 12.8872 14.0881 12.5635 14.4055L12.9136 14.7625L12.5635 14.4055C12.2395 14.7233 12.0556 15.1564 12.0556 15.61V21.6029V22.1029H12.5556H17.4445ZM19.3889 21.6029V22.1029H19.8889H22.3333C22.787 22.1029 23.2239 21.9262 23.5476 21.6088C23.8717 21.291 24.0555 20.858 24.0555 20.4043V9.91685V9.91621C24.0552 9.67354 24.0022 9.43402 23.9003 9.2137C23.7985 8.99339 23.6503 8.79765 23.4663 8.63912L23.4656 8.63847L16.133 2.34665C16.1329 2.34649 16.1327 2.34632 16.1325 2.34616C15.8179 2.07541 15.4153 1.92733 15 1.92733C14.5847 1.92733 14.1821 2.07541 13.8676 2.34616C13.8674 2.34632 13.8672 2.34649 13.867 2.34665L6.5345 8.63847L6.53375 8.63912C6.34973 8.79765 6.20157 8.99339 6.09973 9.21369C5.99788 9.43402 5.94486 9.67354 5.94454 9.91621V9.91685V20.4043C5.94454 20.858 6.12841 21.291 6.45244 21.6088C6.77613 21.9262 7.21312 22.1029 7.66676 22.1029H10.1112H10.6112V21.6029V15.61C10.6112 14.7922 10.9424 14.0058 11.5352 13.4245C12.1283 12.8428 12.9349 12.5143 13.7778 12.5143H16.2222C17.0652 12.5143 17.8717 12.8428 18.4649 13.4245C19.0577 14.0058 19.3889 14.7922 19.3889 15.61V21.6029Z" stroke="black"/>
</g>
<defs>
<filter id="filter0_d_690_678" x="0" y="0" width="30" height="32" filterUnits="userSpaceOnUse" color-interpolation-filters="sRGB">
<feFlood flood-opacity="0" result="BackgroundImageFix"/>
<feColorMatrix in="SourceAlpha" type="matrix" values="0 0 0 0 0 0 0 0 0 0 0 0 0 0 0 0 0 0 127 0" result="hardAlpha"/>
<feOffset dy="4"/>
<feGaussianBlur stdDeviation="2"/>
<feComposite in2="hardAlpha" operator="out"/>
<feColorMatrix type="matrix" values="0 0 0 0 0 0 0 0 0 0 0 0 0 0 0 0 0 0 0.25 0"/>
<feBlend mode="normal" in2="BackgroundImageFix" result="effect1_dropShadow_690_678"/>
<feBlend mode="normal" in="SourceGraphic" in2="effect1_dropShadow_690_678" result="shape"/>
</filter>
</defs>
</svg>
