<svg width="14" height="17" viewBox="0 0 14 17" fill="none" xmlns="http://www.w3.org/2000/svg">
<path d="M6.99992 15.3167C5.66658 15.3167 4.40825 14.8001 3.46659 13.8584C2.99934 13.3949 2.62902 12.8431 2.37721 12.235C2.12541 11.6269 1.99715 10.9748 1.99992 10.3167C1.99992 9.00006 2.51659 7.72506 3.46659 6.78339L6.99992 3.25006M11.7166 5.60839L6.99992 0.891724L2.28325 5.60839C-0.316748 8.20839 -0.316748 12.4334 2.28325 15.0334C2.90229 15.653 3.63763 16.1443 4.44706 16.4789C5.25649 16.8135 6.12405 16.985 6.99992 16.9834C8.70825 16.9834 10.4166 16.3334 11.7166 15.0334C14.3166 12.4334 14.3166 8.20839 11.7166 5.60839Z" fill="#292929"/>
</svg>
