<svg width="16" height="20" viewBox="0 0 16 20" fill="none" xmlns="http://www.w3.org/2000/svg">
<path d="M2.80664 0.000488281C1.26956 0.000488281 0 1.26811 0 2.80518V19.0005C0.000219308 19.1755 0.0463814 19.3475 0.133872 19.4991C0.221363 19.6507 0.347117 19.7767 0.498566 19.8645C0.650014 19.9523 0.821852 19.9988 0.996902 19.9993C1.17195 19.9999 1.34408 19.9545 1.49609 19.8677L8 16.1509L14.5039 19.8677C14.6559 19.9545 14.828 19.9999 15.0031 19.9993C15.1781 19.9988 15.35 19.9523 15.5014 19.8645C15.6529 19.7767 15.7786 19.6507 15.8661 19.4991C15.9536 19.3475 15.9998 19.1755 16 19.0005V2.80518C16 1.26811 14.7304 0.000488281 13.1934 0.000488281H2.80664ZM2.80664 2.00049H13.1934C13.657 2.00049 14 2.34153 14 2.80518V17.2759L8.49609 14.1313C8.345 14.045 8.17401 13.9996 8 13.9996C7.82599 13.9996 7.655 14.045 7.50391 14.1313L2 17.2759V2.80518C2 2.34153 2.34298 2.00049 2.80664 2.00049Z" fill="black"/>
</svg>
