<svg width="24" height="24" viewBox="0 0 24 24" fill="none" xmlns="http://www.w3.org/2000/svg">
<g clip-path="url(#clip0_690_643)">
<path d="M20 10.0001H16H8V7.20009C8 5.10008 9.5 3.20008 11.6 3.00009C14 2.80009 16 4.70009 16 7.00009C16 7.60009 16.4 8.00009 17 8.00009H18C18.6 8.00009 19 7.60009 19 7.00009C19 3.20008 16 0.100085 12.2 8.45876e-05C8.3 -0.0999154 5 3.10008 5 7.00009V10.0001H4C2.9 10.0001 2 10.9001 2 12.0001V19.0001C2 21.8001 4.2 24.0001 7 24.0001H17C19.8 24.0001 22 21.8001 22 19.0001V12.0001C22 10.9001 21.1 10.0001 20 10.0001ZM13 17.7001V19.0001C13 19.5001 12.5 20.0001 12 20.0001C11.5 20.0001 11 19.5001 11 19.0001V17.7001C10.4 17.4001 10 16.7001 10 16.0001C10 14.9001 10.9 14.0001 12 14.0001C13.1 14.0001 14 14.9001 14 16.0001C14 16.7001 13.6 17.4001 13 17.7001Z" fill="black"/>
</g>
<defs>
<clipPath id="clip0_690_643">
<rect width="24" height="24" fill="white"/>
</clipPath>
</defs>
</svg>
