<svg width="24" height="22" viewBox="0 0 24 22" fill="none" xmlns="http://www.w3.org/2000/svg">
<path d="M23.5291 15.6841C23.0295 15.3576 22.3804 15.4841 22.0507 15.9716L21.6231 16.5992V5.91994C21.6231 2.65588 18.9627 0 15.6924 0H7.46232C6.87313 0 6.39343 0.479284 6.39343 1.06847C6.39343 1.66757 6.8628 2.13694 7.46232 2.13694H15.6924C17.7843 2.13694 19.4857 3.83426 19.4857 5.91995V16.608L19.0556 15.9675C18.7156 15.4849 18.0628 15.3618 17.5616 15.6899C17.079 16.0303 16.9546 16.6831 17.281 17.1798L19.663 20.6967C19.8642 20.9834 20.2022 21.1619 20.5443 21.1619C20.8926 21.1619 21.2343 20.9834 21.438 20.6925L23.8199 17.1764C24.1443 16.6839 24.0203 16.0311 23.5291 15.6841Z" fill="#303030"/>
<path d="M16.5373 19.0249H8.31716C6.21988 19.0249 4.51388 17.3276 4.51388 15.2419V4.54132L4.95102 5.19021C5.28238 5.67858 5.93231 5.80501 6.43804 5.47199C6.92062 5.13154 7.04499 4.47872 6.71858 3.98209L4.33869 0.46847C4.14614 0.185863 3.81726 0.00406129 3.44209 0.0222457C3.07933 0.0255542 2.75292 0.193301 2.57153 0.46847L0.179657 3.9854C-0.144686 4.4779 -0.0207362 5.13072 0.477142 5.48191C0.66348 5.59677 0.87214 5.65957 1.0655 5.65957C1.42001 5.65957 1.74435 5.491 1.96044 5.18939L2.3761 4.57221V15.2419C2.3761 18.506 5.04149 21.1618 8.31716 21.1618H16.5373C17.1265 21.1618 17.6058 20.6825 17.6058 20.0934C17.6058 19.4943 17.1364 19.0249 16.5373 19.0249Z" fill="#303030"/>
</svg>
