<svg width="24" height="24" viewBox="0 0 24 24" fill="none" xmlns="http://www.w3.org/2000/svg">
<path d="M23.3717 20.3621L18.4929 15.4878C19.8868 13.4585 20.4687 10.9951 20.127 8.57022C19.7852 6.14534 18.5438 3.92986 16.6411 2.34893C14.7384 0.768012 12.3083 -0.066978 9.81725 0.00420333C7.32621 0.0753847 4.94967 1.04772 3.1437 2.73462C1.33774 4.42152 0.229578 6.70414 0.0318827 9.14443C-0.165813 11.5847 0.560885 14.0108 2.07252 15.957C3.58415 17.9033 5.77422 19.2326 8.22246 19.6899C10.6707 20.1472 13.2046 19.7002 15.3379 18.4348L20.2965 23.3828C20.7051 23.7797 21.257 24.0016 21.8316 24C22.4062 23.9984 22.9568 23.7735 23.3631 23.3744C23.7694 22.9753 23.9984 22.4344 24 21.87C24.0016 21.3055 23.7757 20.7634 23.3717 20.3621H23.3717ZM10.1156 15.0763C9.08557 15.0764 8.07868 14.7764 7.22224 14.2143C6.3658 13.6522 5.69828 12.8532 5.30409 11.9184C4.9099 10.9837 4.80676 9.95507 5.00769 8.96271C5.20863 7.97036 5.70462 7.05882 6.43294 6.34337C7.16127 5.62792 8.08922 5.14069 9.09945 4.9433C10.1097 4.7459 11.1568 4.84721 12.1084 5.23441C13.06 5.62161 13.8734 6.27731 14.4456 7.11859C15.0178 7.95987 15.3233 8.94895 15.3233 9.96074C15.3232 11.3175 14.7746 12.6186 13.798 13.578C12.8213 14.5373 11.4967 15.0763 10.1156 15.0763Z" fill="black"/>
</svg>
