<svg width="24" height="24" viewBox="0 0 24 24" fill="none" xmlns="http://www.w3.org/2000/svg">
<path d="M12.9803 23.9917C13.5771 23.9917 14.0561 23.7129 14.6338 23.0836L23.403 13.4899C23.834 13.0162 24 12.4657 24 11.9959C24 11.5062 23.845 10.9779 23.4051 10.4936L14.6338 0.973899C13.9967 0.280174 13.5873 0 12.9985 0C12.1273 0 11.4896 0.795371 11.4896 1.77803V6.40557H11.2141C3.53154 6.40557 0 12.1549 0 21.5296C0 23.1056 0.586741 23.9384 1.35252 23.9384C1.91953 23.9384 2.46706 23.7351 2.8967 22.8027C4.64895 18.9909 7.14395 17.6177 11.2141 17.6177H11.4896V22.269C11.4896 23.2516 12.1273 23.9917 12.9803 23.9917ZM13.6737 20.7123C13.581 20.7123 13.5086 20.6279 13.5086 20.5048V15.7148C13.5086 15.4205 13.3998 15.2938 13.147 15.2938H11.7242C6.62323 15.2938 3.37996 17.197 2.04872 20.4115C2.01747 20.4994 1.99332 20.5358 1.94191 20.5358C1.89759 20.5358 1.86436 20.4971 1.86436 20.4009C2.05204 14.2706 4.51976 8.70861 11.7242 8.70861H13.147C13.3998 8.70861 13.5086 8.58193 13.5086 8.28757V3.39174C13.5086 3.27925 13.5811 3.19954 13.6828 3.19954C13.7473 3.19954 13.8117 3.24417 13.8671 3.29576L21.4642 11.7554C21.5418 11.8458 21.573 11.9185 21.573 11.9959C21.573 12.071 21.5508 12.1355 21.4642 12.2363L13.8581 20.5985C13.8027 20.6735 13.7382 20.7123 13.6737 20.7123Z" fill="black"/>
</svg>
