<svg width="24" height="24" viewBox="0 0 24 24" fill="none" xmlns="http://www.w3.org/2000/svg">
<path d="M23.8416 3.8187C22.968 4.2507 22.0272 4.5387 21.0432 4.67203C22.0512 4.00003 22.8192 2.9387 23.184 1.68003C22.2432 2.29336 21.2016 2.7467 20.0928 2.9867C19.2048 1.93603 17.9376 1.28003 16.536 1.28003C13.8432 1.28003 11.664 3.70136 11.664 6.69336C11.664 7.12003 11.7072 7.5307 11.7888 7.92536C7.74241 7.70136 4.15201 5.5467 1.74721 2.27203C1.32961 3.07203 1.08961 4.00003 1.08961 4.99203C1.08961 6.86936 1.94881 8.52803 3.25441 9.4987C2.45761 9.47203 1.70401 9.2267 1.04641 8.82136C1.04641 8.8427 1.04641 8.86403 1.04641 8.8907C1.04641 11.5147 2.72641 13.7014 4.95361 14.1974C4.54561 14.32 4.11361 14.3894 3.67201 14.3894C3.36001 14.3894 3.05281 14.3574 2.75521 14.2934C3.37441 16.4427 5.17441 18.0107 7.30561 18.0534C5.64001 19.504 3.53761 20.368 1.25761 20.368C0.864008 20.368 0.475208 20.3414 0.0960083 20.2934C2.25121 21.8294 4.81441 22.7254 7.56481 22.7254C16.5264 22.7254 21.4272 14.48 21.4272 7.3227C21.4272 7.08803 21.4224 6.85336 21.4128 6.62403C22.3632 5.85603 23.1888 4.90136 23.8416 3.8187Z" fill="#5FA9DD"/>
</svg>
